# OBJ file exported from Hammer

g default
v 33 -53 1
v -35 -55 -2.5
v 35 55 -2.5
v -35 55 -2.5
v -33 53 -1
v -37.5 -57.5 -2.5
v 37.5 57.5 -2.5
v 33 -53 -1
v 35 -55 -2.5
v 33 53 1
v -33 -53 1
v -33 53 1
v 37.5 -57.5 -2.5
v 33 53 -1
v -33 -53 -1
v -37.5 57.5 -2.5
v 35 55 2.5
v 35 -55 2.5
v -37.5 -57.5 2.5
v 37.5 -57.5 2.5
v -35 -55 2.5
v -37.5 57.5 2.5
v -35 55 2.5
v 37.5 57.5 2.5
v 40 60 4.26326e-13
v -40 60 4.26326e-13
v -40 -60 -4.26326e-13
v 40 -60 -4.26326e-13

vn 0.26087 0.130435 0.956522
vn -0.164153 0.328306 0.930198
vn 0.26087 0.130435 0.956522
vn -0.26087 -0.130435 0.956522
vn -0.26087 -0.130435 0.956522
vn 0.130435 0.26087 -0.956522
vn 0.164153 -0.328306 0.930198
vn 0.328306 -0.164153 -0.930198
vn 0.130435 0.26087 -0.956522
vn -0.130435 -0.26087 -0.956522
vn -0.130435 -0.26087 -0.956522
vn 0.164153 -0.328306 0.930198
vn -0.26087 -0.130435 0.956522
vn 0.26087 0.130435 0.956522
vn 0.164153 -0.328306 0.930198
vn 0.164153 -0.328306 0.930198
vn -0.130435 -0.26087 -0.956522
vn -0.0917558 -0.183511 0.978726
vn -0.328306 0.164153 -0.930198
vn 0.215666 -0.107833 0.970495
vn -0.0917558 -0.183511 0.978726
vn -0.26087 -0.130435 0.956522
vn -0.26087 0.130435 0.956522
vn -0.26087 -0.130435 0.956522
vn -0.328306 0.164153 -0.930198
vn -0.26087 0.130435 0.956522
vn 0 1.69542e-09 1
vn 0 2.63395e-09 1
vn 0.107833 0.215666 0.970495
vn -0.26087 0.130435 0.956522
vn 0.107833 0.215666 0.970495
vn 0 2.63395e-09 1
vn 0 -1.69542e-09 1
vn 0 1.69542e-09 1
vn 0.215666 -0.107833 0.970495
vn 0.215666 -0.107833 0.970495
vn 0 1.69542e-09 1
vn 0.107833 0.215666 0.970495
vn 0 -2.54315e-09 1
vn 0 -1.69542e-09 1
vn -0.0917558 -0.183511 0.978726
vn -0.0917558 -0.183511 0.978726
vn 0 -1.69542e-09 1
vn 0.215666 -0.107833 0.970495
vn 0 -2.54315e-09 1
vn -0.0917558 -0.183511 0.978726
vn 0 2.63395e-09 1
vn -0.0917558 -0.183511 0.978726
vn -0.26087 0.130435 0.956522
vn 0 2.63395e-09 1
vn -2.15792e-07 0.707107 0.707107
vn -2.22985e-07 0.707107 0.707107
vn -2.22985e-07 0.707107 0.707107
vn -2.22985e-07 0.707107 0.707107
vn -2.30178e-07 0.707107 0.707107
vn -2.22985e-07 0.707107 0.707107
vn -0.707106 1.12392e-07 0.707107
vn -0.707107 1.14835e-07 0.707107
vn -0.707107 1.14835e-07 0.707107
vn -0.707107 1.14835e-07 0.707107
vn -0.707107 1.17278e-07 0.707107
vn -0.707107 1.14835e-07 0.707107
vn 2.15792e-07 -0.707107 0.707107
vn 1.65441e-07 -0.707107 0.707106
vn 1.65441e-07 -0.707107 0.707106
vn 1.15089e-07 -0.707108 0.707106
vn 1.65441e-07 -0.707107 0.707106
vn 1.65441e-07 -0.707107 0.707106
vn 0.707106 -1.12391e-07 0.707108
vn 0.707106 -1.14835e-07 0.707107
vn 0.707106 -1.14835e-07 0.707107
vn 0.707106 -1.14835e-07 0.707107
vn 0.707106 -1.14835e-07 0.707107
vn 0.707107 -1.17278e-07 0.707107
vn -2.15792e-07 0.707107 -0.707107
vn -2.22985e-07 0.707107 -0.707107
vn -2.22985e-07 0.707107 -0.707107
vn -2.30178e-07 0.707107 -0.707107
vn -2.22985e-07 0.707107 -0.707107
vn -2.22985e-07 0.707107 -0.707107
vn -0.707107 1.12392e-07 -0.707107
vn -0.707107 1.14835e-07 -0.707107
vn -0.707107 1.14835e-07 -0.707107
vn -0.707107 1.14835e-07 -0.707107
vn -0.707107 1.14835e-07 -0.707107
vn -0.707107 1.17278e-07 -0.707107
vn 2.15792e-07 -0.707107 -0.707107
vn 2.22985e-07 -0.707107 -0.707107
vn 2.22985e-07 -0.707107 -0.707107
vn 2.22985e-07 -0.707107 -0.707107
vn 2.30178e-07 -0.707107 -0.707107
vn 2.22985e-07 -0.707107 -0.707107
vn 0.707107 -1.12392e-07 -0.707107
vn 0.707107 -1.14835e-07 -0.707107
vn 0.707107 -1.14835e-07 -0.707107
vn 0.707107 -1.14835e-07 -0.707107
vn 0.707107 -1.17278e-07 -0.707107
vn 0.707107 -1.14835e-07 -0.707107
vn 0 -1.69543e-09 -1
vn 0 -2.63397e-09 -1
vn 0.107833 -0.215666 -0.970495
vn -0.26087 -0.130435 -0.956522
vn 0.107833 -0.215666 -0.970495
vn 0 -2.63397e-09 -1
vn 0 1.69543e-09 -1
vn 0 -1.69543e-09 -1
vn 0.215666 0.107833 -0.970495
vn 0.215666 0.107833 -0.970495
vn 0 -1.69543e-09 -1
vn 0.107833 -0.215666 -0.970495
vn 0 2.54313e-09 -1
vn 0 1.69543e-09 -1
vn -0.0917556 0.183511 -0.978726
vn -0.0917556 0.183511 -0.978726
vn 0 1.69543e-09 -1
vn 0.215666 0.107833 -0.970495
vn 0 2.54313e-09 -1
vn -0.0917556 0.183511 -0.978726
vn 0 -2.63397e-09 -1
vn -0.0917556 0.183511 -0.978726
vn -0.26087 -0.130435 -0.956522
vn 0 -2.63397e-09 -1
vn 0.107833 -0.215666 -0.970495
vn 0.328306 -0.164153 -0.930198
vn 0.215666 0.107833 -0.970495
vn 0.328306 -0.164153 -0.930198
vn 0.328306 -0.164153 -0.930198
vn 0.215666 0.107833 -0.970495
vn 0.215666 0.107833 -0.970495
vn 0.130435 0.26087 -0.956522
vn -0.0917556 0.183511 -0.978726
vn 0.130435 0.26087 -0.956522
vn 0.130435 0.26087 -0.956522
vn -0.0917556 0.183511 -0.978726
vn -0.0917556 0.183511 -0.978726
vn -0.328306 0.164153 -0.930198
vn -0.26087 -0.130435 -0.956522
vn -0.328306 0.164153 -0.930198
vn 0.215666 -0.107833 0.970495
vn -0.26087 -0.130435 -0.956522
vn -0.26087 -0.130435 -0.956522
vn -0.130435 -0.26087 -0.956522
vn 0.107833 -0.215666 -0.970495
vn -0.130435 -0.26087 -0.956522
vn -0.0917558 -0.183511 0.978726
vn 0.107833 -0.215666 -0.970495
vn -0.26087 0.130435 0.956522
vn -0.164153 0.328306 0.930198
vn 0.107833 0.215666 0.970495
vn -0.164153 0.328306 0.930198
vn -0.164153 0.328306 0.930198
vn 0.107833 0.215666 0.970495
vn 0.107833 0.215666 0.970495
vn 0.26087 0.130435 0.956522
vn 0.215666 -0.107833 0.970495
vn 0.26087 0.130435 0.956522

vt -10.5805 47.0247
vt 58.562 -3.37498
vt 4.23515 0.742173
vt 5.06329 1.2578
vt 4.83417 -57.775
vt -58.7955 -3.37502
vt 12.9855 -57.775
vt -4.83304 -57.7744
vt -3.2352 0.742174
vt -4.06332 1.2578
vt 72.1969 -3.37498
vt -4.42348 -57.7744
vt 5.06328 1.2578
vt 4.23516 0.742173
vt 5.06329 0.742173
vt -72.1782 -3.37501
vt -4.06332 1.2578
vt -12.8769 -58.0869
vt -3.2352 1.2578
vt -4.2222 -58.0869
vt 72.4669 -3.68748
vt 72.1991 -3.37498
vt 58.7403 -3.68748
vt 71.7877 -3.37498
vt 10.5832 47.025
vt 58.2936 -3.68748
vt -15.4762 58.3125
vt -6.26557 58.3125
vt -15.2275 58.625
vt 15.8164 58.625
vt 7.23723 58.625
vt 16.0614 58.3125
vt -71.5239 -4.68751
vt -57.2627 -4.68751
vt -71.2531 -4.37501
vt -72.3273 -4.37501
vt -58.4258 -4.68751
vt -58.6948 -4.37501
vt 13.9897 -72.6875
vt 23.0552 -72.6875
vt 14.2123 -72.375
vt -23.5481 -72.375
vt -14.8984 -72.6875
vt -15.116 -72.375
vt 72.3335 -4.68748
vt 72.0382 -4.37498
vt 57.979 -4.68748
vt 72.5063 -4.37498
vt 58.7776 -4.37498
vt 58.483 -4.68748
vt 4.67291 -51.6188
vt 14.499 -51.6188
vt 4.8979 -51.1768
vt -5.12027 -51.6188
vt -5.34098 -51.1769
vt -14.5375 -51.1769
vt -72.4709 -3.53555
vt -57.5206 -3.53555
vt -72.1954 -3.09361
vt -58.0915 -3.53555
vt -58.3656 -3.09361
vt -72.6894 -3.09361
vt -10.921 41.0122
vt -1.02765 41.0122
vt -10.6762 41.4541
vt 10.9762 41.4541
vt 1.71163 41.4541
vt 11.2174 41.0122
vt 58.0952 -3.53553
vt 73.0453 -3.53553
vt 58.3707 -3.09359
vt 57.8415 -3.09358
vt 72.4388 -3.53553
vt 72.1649 -3.09358
vt -4.66885 -51.6188
vt -14.495 -51.6188
vt -4.89388 -51.1769
vt 5.34487 -51.1768
vt 14.5412 -51.1768
vt 5.12419 -51.6188
vt -58.0955 -3.53554
vt -73.0458 -3.53554
vt -58.371 -3.0936
vt -57.8432 -3.0936
vt -72.441 -3.53554
vt -72.1669 -3.0936
vt 10.9191 41.0122
vt 1.02574 41.0122
vt 10.6743 41.4541
vt -11.2193 41.0122
vt -10.9781 41.4541
vt -1.71359 41.4541
vt 72.4689 -3.53552
vt 57.5188 -3.53552
vt 72.1935 -3.09358
vt 58.0912 -3.53552
vt 58.3652 -3.09358
vt 72.6887 -3.09358
vt -13.9929 -72.6875
vt -23.0583 -72.6875
vt -14.2154 -72.375
vt 15.113 -72.375
vt 23.5452 -72.375
vt 14.8953 -72.6875
vt -58.4395 -4.68751
vt -72.7007 -4.68751
vt -58.7103 -4.37501
vt -57.5537 -4.37501
vt -71.4554 -4.68751
vt -71.1863 -4.37501
vt 15.4737 58.3125
vt 6.26294 58.3125
vt 15.2249 58.625
vt -7.24006 58.625
vt -16.0641 58.3125
vt -15.8192 58.625
vt 58.4795 -4.68748
vt 58.7749 -4.37498
vt 72.8341 -4.68748
vt 58.2905 -4.37498
vt 72.0191 -4.37498
vt 72.3138 -4.68748
vt -72.4328 -3.68752
vt -72.1768 -3.37502
vt -58.6854 -3.68752
vt -72.0428 -3.37502
vt -4.06332 0.742174
vt -58.5392 -3.68751
vt -10.4865 46.7122
vt -10.2798 47.0247
vt -1.81266 46.7122
vt 2.41238 47.025
vt -3.2352 0.742173
vt 10.7877 46.7125
vt 58.3105 -3.68749
vt 58.5783 -3.37499
vt 72.0371 -3.68749
vt 58.9713 -3.37498
vt -72.4345 -3.68751
vt 72.4654 -3.68748
vt 4.22326 -58.0875
vt 4.42453 -57.775
vt 12.8779 -58.0875
vt -12.9844 -57.7744
vt 4.63535 -58.0875
vt -4.63421 -58.0869
vt 10.4893 46.7125
vt 10.2826 47.025
vt 1.81551 46.7125
vt -2.40955 47.0247
vt 4.23515 1.2578
vt -10.7849 46.7122
vt -58.543 -3.68751
vt -58.7989 -3.37501
vt -72.2904 -3.6875
vt -58.9309 -3.37501

s off
g mesh_986

f 1/151/151 10/13/13 11/3/3
f 10/4/4 12/15/15 11/14/14
f 5/127/127 14/17/17 15/9/9
f 14/10/10 8/19/19 15/133/133
f 17/21/21 10/22/22 18/23/23
f 10/24/24 1/2/2 18/26/26
f 19/27/27 20/28/28 21/29/29
f 18/30/30 21/31/31 20/32/32
f 22/33/33 19/34/34 23/35/35
f 23/36/36 19/37/37 21/38/38
f 24/39/39 22/40/40 17/41/41
f 17/42/42 22/43/43 23/44/44
f 24/45/45 17/46/46 20/47/47
f 17/48/48 18/49/49 20/50/50
f 25/51/51 26/52/52 24/53/53
f 26/54/54 22/55/55 24/56/56
f 26/57/57 27/58/58 22/59/59
f 27/60/60 19/61/61 22/62/62
f 27/63/63 28/64/64 19/65/65
f 20/66/66 19/67/67 28/68/68
f 28/69/69 25/70/70 20/71/71
f 20/72/72 25/73/73 24/74/74
f 26/75/75 25/76/76 16/77/77
f 7/78/78 16/79/79 25/80/80
f 27/81/81 26/82/82 6/83/83
f 6/84/84 26/85/85 16/86/86
f 28/87/87 27/88/88 13/89/89
f 27/90/90 6/91/91 13/92/92
f 25/93/93 28/94/94 7/95/95
f 28/96/96 13/97/97 7/98/98
f 16/99/99 7/100/100 4/101/101
f 3/102/102 4/103/103 7/104/104
f 6/105/105 16/106/106 2/107/107
f 2/108/108 16/109/109 4/110/110
f 13/111/111 6/112/112 9/113/113
f 9/114/114 6/115/115 2/116/116
f 13/117/117 9/118/118 7/119/119
f 9/120/120 3/121/121 7/122/122
f 4/123/123 5/124/124 2/125/125
f 5/126/126 15/6/6 2/128/128
f 2/129/129 15/130/130 9/131/131
f 15/132/132 8/25/25 9/134/134
f 9/135/135 8/136/136 3/137/137
f 8/138/138 14/11/11 3/140/140
f 3/141/141 14/142/142 4/143/143
f 14/144/144 5/8/8 4/146/146
f 18/147/147 1/148/148 21/149/149
f 1/150/150 11/1/1 21/152/152
f 21/153/153 11/154/154 23/155/155
f 11/156/156 12/16/16 23/139/139
f 23/20/20 12/12/12 17/18/18
f 12/7/7 10/5/5 17/145/145

